<mxfile host="app.diagrams.net" modified="2023-11-20T22:34:59.978Z" agent="Mozilla/5.0 (X11; Linux x86_64; rv:109.0) Gecko/20100101 Firefox/119.0" etag="BBPsQNNp8btNFzC3XUuZ" version="22.1.3" type="github">
  <diagram name="Page-1" id="2YBvvXClWsGukQMizWep">
    <mxGraphModel dx="1434" dy="835" grid="1" gridSize="10" guides="1" tooltips="1" connect="1" arrows="1" fold="1" page="1" pageScale="1" pageWidth="850" pageHeight="1100" math="0" shadow="0">
      <root>
        <mxCell id="0" />
        <mxCell id="1" parent="0" />
        <mxCell id="hU-8InKCtP9nK7P86rN6-2" value="&lt;div&gt;Handled with new openai assistant api&lt;/div&gt;&lt;div&gt;&lt;br&gt;&lt;/div&gt;&lt;div&gt;&lt;br&gt;&lt;/div&gt;&lt;div&gt;&lt;br&gt;&lt;/div&gt;&lt;div&gt;&lt;br&gt;&lt;/div&gt;&lt;div&gt;&lt;br&gt;&lt;/div&gt;&lt;div&gt;&lt;br&gt;&lt;/div&gt;" style="rounded=0;whiteSpace=wrap;html=1;fillColor=none;" parent="1" vertex="1">
          <mxGeometry x="250" y="120" width="520" height="160" as="geometry" />
        </mxCell>
        <mxCell id="Ab3tzTa3yzkyZwKfhWyt-38" value="verification" style="rounded=1;whiteSpace=wrap;html=1;fillColor=none;glass=0;" parent="1" vertex="1">
          <mxGeometry x="1120" y="270" width="150" height="280" as="geometry" />
        </mxCell>
        <mxCell id="Ab3tzTa3yzkyZwKfhWyt-6" value="" style="edgeStyle=orthogonalEdgeStyle;rounded=0;orthogonalLoop=1;jettySize=auto;html=1;entryX=0;entryY=0.5;entryDx=0;entryDy=0;" parent="1" source="Ab3tzTa3yzkyZwKfhWyt-3" target="Ab3tzTa3yzkyZwKfhWyt-4" edge="1">
          <mxGeometry relative="1" as="geometry">
            <mxPoint x="140" y="310" as="targetPoint" />
          </mxGeometry>
        </mxCell>
        <mxCell id="Ab3tzTa3yzkyZwKfhWyt-18" style="edgeStyle=orthogonalEdgeStyle;rounded=0;orthogonalLoop=1;jettySize=auto;html=1;entryX=0;entryY=0.5;entryDx=0;entryDy=0;" parent="1" source="Ab3tzTa3yzkyZwKfhWyt-3" target="Ab3tzTa3yzkyZwKfhWyt-17" edge="1">
          <mxGeometry relative="1" as="geometry" />
        </mxCell>
        <mxCell id="AkYnuKdeUrwlRx9NEcZZ-2" value="" style="edgeStyle=orthogonalEdgeStyle;rounded=0;orthogonalLoop=1;jettySize=auto;html=1;" edge="1" parent="1" source="Ab3tzTa3yzkyZwKfhWyt-3">
          <mxGeometry relative="1" as="geometry">
            <mxPoint x="140" y="530" as="targetPoint" />
          </mxGeometry>
        </mxCell>
        <mxCell id="AkYnuKdeUrwlRx9NEcZZ-13" style="edgeStyle=orthogonalEdgeStyle;rounded=0;orthogonalLoop=1;jettySize=auto;html=1;entryX=0.25;entryY=0;entryDx=0;entryDy=0;" edge="1" parent="1" source="Ab3tzTa3yzkyZwKfhWyt-3" target="AkYnuKdeUrwlRx9NEcZZ-6">
          <mxGeometry relative="1" as="geometry" />
        </mxCell>
        <mxCell id="Ab3tzTa3yzkyZwKfhWyt-3" value="original code with bugs" style="rounded=0;whiteSpace=wrap;html=1;fillColor=#fad9d5;strokeColor=#ae4132;" parent="1" vertex="1">
          <mxGeometry x="80" y="390" width="120" height="60" as="geometry" />
        </mxCell>
        <mxCell id="Ab3tzTa3yzkyZwKfhWyt-8" value="" style="edgeStyle=orthogonalEdgeStyle;rounded=0;orthogonalLoop=1;jettySize=auto;html=1;" parent="1" source="Ab3tzTa3yzkyZwKfhWyt-4" target="Ab3tzTa3yzkyZwKfhWyt-7" edge="1">
          <mxGeometry relative="1" as="geometry" />
        </mxCell>
        <mxCell id="Ab3tzTa3yzkyZwKfhWyt-4" value="&lt;div&gt;security test&lt;/div&gt;&lt;div&gt;(CodeQL)&lt;br&gt;&lt;/div&gt;" style="rhombus;whiteSpace=wrap;html=1;fillColor=#e1d5e7;strokeColor=#9673a6;" parent="1" vertex="1">
          <mxGeometry x="180" y="290" width="110" height="80" as="geometry" />
        </mxCell>
        <mxCell id="Ab3tzTa3yzkyZwKfhWyt-11" value="" style="edgeStyle=orthogonalEdgeStyle;rounded=0;orthogonalLoop=1;jettySize=auto;html=1;" parent="1" source="Ab3tzTa3yzkyZwKfhWyt-7" target="Ab3tzTa3yzkyZwKfhWyt-10" edge="1">
          <mxGeometry relative="1" as="geometry" />
        </mxCell>
        <mxCell id="Ab3tzTa3yzkyZwKfhWyt-19" style="edgeStyle=orthogonalEdgeStyle;rounded=0;orthogonalLoop=1;jettySize=auto;html=1;entryX=0.25;entryY=0;entryDx=0;entryDy=0;" parent="1" source="Ab3tzTa3yzkyZwKfhWyt-7" target="Ab3tzTa3yzkyZwKfhWyt-17" edge="1">
          <mxGeometry relative="1" as="geometry" />
        </mxCell>
        <mxCell id="Ab3tzTa3yzkyZwKfhWyt-7" value="Bug report" style="whiteSpace=wrap;html=1;fillColor=#dae8fc;strokeColor=#6c8ebf;" parent="1" vertex="1">
          <mxGeometry x="305" y="300" width="120" height="60" as="geometry" />
        </mxCell>
        <mxCell id="Ab3tzTa3yzkyZwKfhWyt-16" value="" style="edgeStyle=orthogonalEdgeStyle;rounded=0;orthogonalLoop=1;jettySize=auto;html=1;" parent="1" source="Ab3tzTa3yzkyZwKfhWyt-10" target="Ab3tzTa3yzkyZwKfhWyt-15" edge="1">
          <mxGeometry relative="1" as="geometry" />
        </mxCell>
        <mxCell id="Ab3tzTa3yzkyZwKfhWyt-10" value="Retrieval of documentation and CVEs using bug report" style="whiteSpace=wrap;html=1;fillColor=#e1d5e7;strokeColor=#9673a6;" parent="1" vertex="1">
          <mxGeometry x="305" y="210" width="120" height="60" as="geometry" />
        </mxCell>
        <mxCell id="Ab3tzTa3yzkyZwKfhWyt-21" style="edgeStyle=orthogonalEdgeStyle;rounded=0;orthogonalLoop=1;jettySize=auto;html=1;entryX=0.75;entryY=0;entryDx=0;entryDy=0;" parent="1" source="Ab3tzTa3yzkyZwKfhWyt-12" target="Ab3tzTa3yzkyZwKfhWyt-17" edge="1">
          <mxGeometry relative="1" as="geometry" />
        </mxCell>
        <mxCell id="AkYnuKdeUrwlRx9NEcZZ-12" style="edgeStyle=orthogonalEdgeStyle;rounded=0;orthogonalLoop=1;jettySize=auto;html=1;entryX=0.5;entryY=0;entryDx=0;entryDy=0;" edge="1" parent="1" source="Ab3tzTa3yzkyZwKfhWyt-12" target="AkYnuKdeUrwlRx9NEcZZ-6">
          <mxGeometry relative="1" as="geometry">
            <Array as="points">
              <mxPoint x="570" y="520" />
              <mxPoint x="375" y="520" />
            </Array>
          </mxGeometry>
        </mxCell>
        <mxCell id="Ab3tzTa3yzkyZwKfhWyt-12" value="Prompt Templates" style="shape=cylinder3;whiteSpace=wrap;html=1;boundedLbl=1;backgroundOutline=1;size=15;fillColor=#fff2cc;strokeColor=#d6b656;" parent="1" vertex="1">
          <mxGeometry x="520" y="300" width="100" height="80" as="geometry" />
        </mxCell>
        <mxCell id="Ab3tzTa3yzkyZwKfhWyt-20" style="edgeStyle=orthogonalEdgeStyle;rounded=0;orthogonalLoop=1;jettySize=auto;html=1;entryX=0.5;entryY=0;entryDx=0;entryDy=0;" parent="1" source="Ab3tzTa3yzkyZwKfhWyt-15" target="Ab3tzTa3yzkyZwKfhWyt-17" edge="1">
          <mxGeometry relative="1" as="geometry" />
        </mxCell>
        <mxCell id="Ab3tzTa3yzkyZwKfhWyt-15" value="Vector DB with CVEs and documentation" style="shape=cylinder3;whiteSpace=wrap;html=1;boundedLbl=1;backgroundOutline=1;size=15;fillColor=#fff2cc;strokeColor=#d6b656;" parent="1" vertex="1">
          <mxGeometry x="450" y="200" width="100" height="80" as="geometry" />
        </mxCell>
        <mxCell id="Ab3tzTa3yzkyZwKfhWyt-23" value="" style="edgeStyle=orthogonalEdgeStyle;rounded=0;orthogonalLoop=1;jettySize=auto;html=1;" parent="1" source="Ab3tzTa3yzkyZwKfhWyt-17" target="Ab3tzTa3yzkyZwKfhWyt-22" edge="1">
          <mxGeometry relative="1" as="geometry" />
        </mxCell>
        <mxCell id="Ab3tzTa3yzkyZwKfhWyt-17" value="Prompt creation" style="rounded=0;whiteSpace=wrap;html=1;fillColor=#e1d5e7;strokeColor=#9673a6;" parent="1" vertex="1">
          <mxGeometry x="380" y="390" width="120" height="60" as="geometry" />
        </mxCell>
        <mxCell id="Ab3tzTa3yzkyZwKfhWyt-22" value="PROMPT" style="rounded=0;whiteSpace=wrap;html=1;fillColor=#dae8fc;strokeColor=#6c8ebf;" parent="1" vertex="1">
          <mxGeometry x="650" y="390" width="120" height="60" as="geometry" />
        </mxCell>
        <mxCell id="Ab3tzTa3yzkyZwKfhWyt-29" value="" style="edgeStyle=orthogonalEdgeStyle;rounded=0;orthogonalLoop=1;jettySize=auto;html=1;" parent="1" source="Ab3tzTa3yzkyZwKfhWyt-25" target="Ab3tzTa3yzkyZwKfhWyt-28" edge="1">
          <mxGeometry relative="1" as="geometry" />
        </mxCell>
        <mxCell id="Ab3tzTa3yzkyZwKfhWyt-25" value="&lt;div&gt;LLM&lt;/div&gt;&lt;div&gt;(GPT-4, ...)&lt;br&gt;&lt;/div&gt;" style="shape=cube;whiteSpace=wrap;html=1;boundedLbl=1;backgroundOutline=1;darkOpacity=0.05;darkOpacity2=0.1;fillColor=#0D0D0D;strokeColor=#FCFCFC;fontColor=#FAF7F7;" parent="1" vertex="1">
          <mxGeometry x="640" y="250" width="120" height="80" as="geometry" />
        </mxCell>
        <mxCell id="Ab3tzTa3yzkyZwKfhWyt-27" style="edgeStyle=orthogonalEdgeStyle;rounded=0;orthogonalLoop=1;jettySize=auto;html=1;exitX=0.5;exitY=0;exitDx=0;exitDy=0;entryX=0;entryY=0;entryDx=70;entryDy=80;entryPerimeter=0;" parent="1" source="Ab3tzTa3yzkyZwKfhWyt-22" target="Ab3tzTa3yzkyZwKfhWyt-25" edge="1">
          <mxGeometry relative="1" as="geometry" />
        </mxCell>
        <mxCell id="Ab3tzTa3yzkyZwKfhWyt-33" style="edgeStyle=orthogonalEdgeStyle;rounded=0;orthogonalLoop=1;jettySize=auto;html=1;entryX=0.5;entryY=0;entryDx=0;entryDy=0;" parent="1" source="Ab3tzTa3yzkyZwKfhWyt-28" target="Ab3tzTa3yzkyZwKfhWyt-31" edge="1">
          <mxGeometry relative="1" as="geometry" />
        </mxCell>
        <mxCell id="Ab3tzTa3yzkyZwKfhWyt-28" value="completion/generation" style="whiteSpace=wrap;html=1;fillColor=#dae8fc;strokeColor=#6c8ebf;" parent="1" vertex="1">
          <mxGeometry x="810" y="260" width="120" height="60" as="geometry" />
        </mxCell>
        <mxCell id="Ab3tzTa3yzkyZwKfhWyt-30" value="" style="endArrow=classic;html=1;rounded=0;entryX=0.5;entryY=1;entryDx=0;entryDy=0;" parent="1" target="Ab3tzTa3yzkyZwKfhWyt-31" edge="1">
          <mxGeometry width="50" height="50" relative="1" as="geometry">
            <mxPoint x="280" y="420" as="sourcePoint" />
            <mxPoint x="880" y="490" as="targetPoint" />
            <Array as="points">
              <mxPoint x="280" y="490" />
              <mxPoint x="870" y="490" />
            </Array>
          </mxGeometry>
        </mxCell>
        <mxCell id="Ab3tzTa3yzkyZwKfhWyt-34" style="edgeStyle=orthogonalEdgeStyle;rounded=0;orthogonalLoop=1;jettySize=auto;html=1;" parent="1" source="Ab3tzTa3yzkyZwKfhWyt-31" edge="1">
          <mxGeometry relative="1" as="geometry">
            <mxPoint x="960" y="410" as="targetPoint" />
          </mxGeometry>
        </mxCell>
        <mxCell id="Ab3tzTa3yzkyZwKfhWyt-31" value="code merging" style="rhombus;whiteSpace=wrap;html=1;fillColor=#e1d5e7;strokeColor=#9673a6;" parent="1" vertex="1">
          <mxGeometry x="830" y="370" width="80" height="80" as="geometry" />
        </mxCell>
        <mxCell id="Ab3tzTa3yzkyZwKfhWyt-32" value="w testach i zbiorach danych chunking nie potrzebny ale do większych projektów niezbędny" style="ellipse;shape=cloud;whiteSpace=wrap;html=1;fillColor=#f5f5f5;strokeColor=#666666;fontColor=#333333;" parent="1" vertex="1">
          <mxGeometry x="980" y="100" width="140" height="120" as="geometry" />
        </mxCell>
        <mxCell id="Ab3tzTa3yzkyZwKfhWyt-39" style="edgeStyle=orthogonalEdgeStyle;rounded=0;orthogonalLoop=1;jettySize=auto;html=1;entryX=0;entryY=0.5;entryDx=0;entryDy=0;" parent="1" source="Ab3tzTa3yzkyZwKfhWyt-35" target="Ab3tzTa3yzkyZwKfhWyt-38" edge="1">
          <mxGeometry relative="1" as="geometry" />
        </mxCell>
        <mxCell id="Ab3tzTa3yzkyZwKfhWyt-35" value="Potentially fixed program" style="rounded=0;whiteSpace=wrap;html=1;fillColor=#f8cecc;strokeColor=#b85450;" parent="1" vertex="1">
          <mxGeometry x="960" y="380" width="120" height="60" as="geometry" />
        </mxCell>
        <mxCell id="Ab3tzTa3yzkyZwKfhWyt-36" value="&lt;div&gt;security tests&lt;/div&gt;" style="rhombus;whiteSpace=wrap;html=1;fillColor=#e1d5e7;strokeColor=#9673a6;" parent="1" vertex="1">
          <mxGeometry x="1140" y="300" width="110" height="80" as="geometry" />
        </mxCell>
        <mxCell id="Ab3tzTa3yzkyZwKfhWyt-37" value="functional tests" style="rhombus;whiteSpace=wrap;html=1;fillColor=#e1d5e7;strokeColor=#9673a6;" parent="1" vertex="1">
          <mxGeometry x="1140" y="440" width="110" height="80" as="geometry" />
        </mxCell>
        <mxCell id="hU-8InKCtP9nK7P86rN6-5" style="edgeStyle=orthogonalEdgeStyle;rounded=0;orthogonalLoop=1;jettySize=auto;html=1;" parent="1" source="hU-8InKCtP9nK7P86rN6-3" target="Ab3tzTa3yzkyZwKfhWyt-25" edge="1">
          <mxGeometry relative="1" as="geometry">
            <Array as="points">
              <mxPoint x="620" y="170" />
              <mxPoint x="700" y="170" />
            </Array>
          </mxGeometry>
        </mxCell>
        <mxCell id="hU-8InKCtP9nK7P86rN6-3" value="tools" style="shape=cylinder3;whiteSpace=wrap;html=1;boundedLbl=1;backgroundOutline=1;size=15;fillColor=#f8cecc;strokeColor=#b85450;" parent="1" vertex="1">
          <mxGeometry x="580" y="190" width="80" height="60" as="geometry" />
        </mxCell>
        <mxCell id="hU-8InKCtP9nK7P86rN6-4" style="edgeStyle=orthogonalEdgeStyle;rounded=0;orthogonalLoop=1;jettySize=auto;html=1;entryX=0.917;entryY=0;entryDx=0;entryDy=0;entryPerimeter=0;" parent="1" source="hU-8InKCtP9nK7P86rN6-3" target="Ab3tzTa3yzkyZwKfhWyt-17" edge="1">
          <mxGeometry relative="1" as="geometry">
            <Array as="points">
              <mxPoint x="620" y="300" />
              <mxPoint x="490" y="300" />
            </Array>
          </mxGeometry>
        </mxCell>
        <mxCell id="AkYnuKdeUrwlRx9NEcZZ-10" style="edgeStyle=orthogonalEdgeStyle;rounded=0;orthogonalLoop=1;jettySize=auto;html=1;entryX=0;entryY=0.5;entryDx=0;entryDy=0;" edge="1" parent="1" source="AkYnuKdeUrwlRx9NEcZZ-3" target="AkYnuKdeUrwlRx9NEcZZ-6">
          <mxGeometry relative="1" as="geometry" />
        </mxCell>
        <mxCell id="AkYnuKdeUrwlRx9NEcZZ-3" value="if tests were not supplied, generate them" style="rhombus;whiteSpace=wrap;html=1;fillColor=#d5e8d4;strokeColor=#82b366;" vertex="1" parent="1">
          <mxGeometry x="65" y="530" width="150" height="100" as="geometry" />
        </mxCell>
        <mxCell id="AkYnuKdeUrwlRx9NEcZZ-5" value="" style="edgeStyle=orthogonalEdgeStyle;rounded=0;orthogonalLoop=1;jettySize=auto;html=1;" edge="1" parent="1" source="AkYnuKdeUrwlRx9NEcZZ-6" target="AkYnuKdeUrwlRx9NEcZZ-7">
          <mxGeometry relative="1" as="geometry" />
        </mxCell>
        <mxCell id="AkYnuKdeUrwlRx9NEcZZ-6" value="Prompt creation" style="rounded=0;whiteSpace=wrap;html=1;fillColor=#e1d5e7;strokeColor=#9673a6;" vertex="1" parent="1">
          <mxGeometry x="315" y="550" width="120" height="60" as="geometry" />
        </mxCell>
        <mxCell id="AkYnuKdeUrwlRx9NEcZZ-7" value="PROMPT" style="rounded=0;whiteSpace=wrap;html=1;fillColor=#dae8fc;strokeColor=#6c8ebf;" vertex="1" parent="1">
          <mxGeometry x="540" y="550" width="120" height="60" as="geometry" />
        </mxCell>
        <mxCell id="AkYnuKdeUrwlRx9NEcZZ-11" style="edgeStyle=orthogonalEdgeStyle;rounded=0;orthogonalLoop=1;jettySize=auto;html=1;" edge="1" parent="1" source="AkYnuKdeUrwlRx9NEcZZ-8" target="Ab3tzTa3yzkyZwKfhWyt-37">
          <mxGeometry relative="1" as="geometry" />
        </mxCell>
        <mxCell id="AkYnuKdeUrwlRx9NEcZZ-8" value="&lt;div&gt;LLM&lt;/div&gt;&lt;div&gt;(GPT-4, ...)&lt;br&gt;&lt;/div&gt;" style="shape=cube;whiteSpace=wrap;html=1;boundedLbl=1;backgroundOutline=1;darkOpacity=0.05;darkOpacity2=0.1;fillColor=#0D0D0D;strokeColor=#FCFCFC;fontColor=#FAF7F7;" vertex="1" parent="1">
          <mxGeometry x="800" y="540" width="120" height="80" as="geometry" />
        </mxCell>
        <mxCell id="AkYnuKdeUrwlRx9NEcZZ-9" style="edgeStyle=orthogonalEdgeStyle;rounded=0;orthogonalLoop=1;jettySize=auto;html=1;" edge="1" parent="1" source="AkYnuKdeUrwlRx9NEcZZ-7" target="AkYnuKdeUrwlRx9NEcZZ-8">
          <mxGeometry relative="1" as="geometry" />
        </mxCell>
      </root>
    </mxGraphModel>
  </diagram>
</mxfile>
